<svg width="148" height="78" viewBox="0 0 148 78" fill="none" xmlns="http://www.w3.org/2000/svg">
<path d="M38.012 18.816C38.284 18.4533 39.1453 18.1133 40.596 17.796C42.092 17.4333 43.4973 17.252 44.812 17.252C46.1267 17.252 47.2147 17.4333 48.076 17.796L41.412 69H32.164L34.816 46.016L33.932 46.288C29.7613 47.512 25.976 48.7133 22.576 49.892L21.624 57.372C20.536 65.396 16.7733 69.408 10.336 69.408C8.024 69.408 6.23333 68.728 4.964 67.368C3.69467 65.9627 3.06 64.172 3.06 61.996C3.06 57.1453 6.48267 52.7707 13.328 48.872L16.796 19.36C17.6573 18.7707 18.7907 18.272 20.196 17.864C21.6013 17.456 22.9613 17.252 24.276 17.252C25.5907 17.252 26.452 17.2747 26.86 17.32L23.324 44.384C26.0893 43.3867 29.58 42.3213 33.796 41.188L35.428 40.78L38.012 18.816ZM7.82 60.976C7.82 62.4267 8.47733 63.152 9.792 63.152C10.5173 63.152 10.9933 62.948 11.22 62.54C11.4467 62.0867 11.6053 61.724 11.696 61.452C11.832 61.1347 11.9453 60.7267 12.036 60.228C12.1267 59.7293 12.1947 59.2987 12.24 58.936C12.2853 58.528 12.3307 58.0067 12.376 57.372C12.4213 56.7373 12.4667 56.2387 12.512 55.876L12.648 54.856C9.42933 57.0773 7.82 59.1173 7.82 60.976ZM67.0708 40.644H93.0468L92.4348 46.492H66.4588L67.0708 40.644ZM125.674 37.1582C125.12 36.804 124.523 36.627 123.881 36.627C123.239 36.627 122.575 36.7819 121.889 37.0918C121.202 37.3796 120.483 37.7891 119.73 38.3203C118.159 39.4492 116.709 40.9544 115.381 42.8359V69H101.104V33.5391H115.381V39.2168C119.166 35.0332 123.449 32.9414 128.23 32.9414C136.044 32.9414 139.951 36.7266 139.951 44.2969V69H125.674V37.1582Z" fill="white"/>
<path d="M62.5 2.02588L64.1839 7.27555H69.6329L65.2245 10.52L66.9084 15.7697L62.5 12.5252L58.0916 15.7697L59.7755 10.52L55.3671 7.27555H60.8161L62.5 2.02588Z" fill="white"/>
<path d="M94.5 2.02588L96.1839 7.27555H101.633L97.2245 10.52L98.9084 15.7697L94.5 12.5252L90.0916 15.7697L91.7755 10.52L87.3671 7.27555H92.8161L94.5 2.02588Z" fill="white"/>
<path d="M95.5 19.2466L97.1839 24.4963H102.633L98.2245 27.7407L99.9084 32.9904L95.5 29.7459L91.0916 32.9904L92.7755 27.7407L88.3671 24.4963H93.8161L95.5 19.2466Z" fill="white"/>
<path d="M62.5 19.2466L64.1839 24.4963H69.6329L65.2245 27.7407L66.9084 32.9904L62.5 29.7459L58.0916 32.9904L59.7755 27.7407L55.3671 24.4963H60.8161L62.5 19.2466Z" fill="white"/>
<line x1="79.5" y1="49.6362" x2="79.5" y2="60.7791" stroke="white" stroke-width="5"/>
<line x1="79.5" y1="11.1431" x2="79.5" y2="38.4937" stroke="white" stroke-width="5"/>
<line y1="-1.5" x2="7.87027" y2="-1.5" transform="matrix(-0.635302 -0.772264 0.764139 -0.645052 85 14.1816)" stroke="#20438A" stroke-width="3"/>
<line y1="-1.5" x2="7.86989" y2="-1.5" transform="matrix(0.638214 -0.769859 0.761686 0.647946 76.2041 16.0034)" stroke="#20438A" stroke-width="3"/>
</svg>
